PathFileType	4	(X/Y/Z)	Patient4_TMGait_0pt3_01_right_08.trc.trc
DataRate	CameraRate	NumFrames	NumMarkers	Units	OrigDataRate	OrigDataStartFrame	OrigNumFrames
51.282051282051	51.282051282051	4	33	mm	51.282051282051	106	       141
Frame#	Time	Sacral			L.Shoulder			Chest			R.Shoulder			Neck			R.ASIS			L.ASIS			R.Thigh.Superior			R.Thigh.Lateral			R.Thigh.Inferior			R.Patella			L.Thigh.Superior			L.Thigh.Lateral			L.Thigh.Inferior			L.Patella			L.Shank.Superior			L.Shank.Lateral			L.Shank.Inferior			R.Shank.Superior			R.Shank.Lateral			R.Shank.Inferior			R.Heel			R.Midfoot.Superior			R.Midfoot.Lateral			R.Toe			L.Heel			L.Midfoot.Lateral			L.Midfoot.Superior			L.Toe			L.Elbow			L.Wrist			R.Elbow			R.Wrist			
		X1	Y1	Z1	X2	Y2	Z2	X3	Y3	Z3	X4	Y4	Z4	X5	Y5	Z5	X6	Y6	Z6	X7	Y7	Z7	X8	Y8	Z8	X9	Y9	Z9	X10	Y10	Z10	X11	Y11	Z11	X12	Y12	Z12	X13	Y13	Z13	X14	Y14	Z14	X15	Y15	Z15	X16	Y16	Z16	X17	Y17	Z17	X18	Y18	Z18	X19	Y19	Z19	X20	Y20	Z20	X21	Y21	Z21	X22	Y22	Z22	X23	Y23	Z23	X24	Y24	Z24	X25	Y25	Z25	X26	Y26	Z26	X27	Y27	Z27	X28	Y28	Z28	X29	Y29	Z29	X30	Y30	Z30	X31	Y31	Z31	X32	Y32	Z32	X33	Y33	Z33	

106	15.617500000000	713.643204170759	1000.088611177588	441.459163204354	931.931355902390	1419.784693579947	255.991442293698	1019.835420185363	1350.794886255404	424.645230627281	928.475805059718	1431.822663448598	591.839701509565	906.990455186310	1484.743312904087	416.002746225630	937.687856430040	938.006965891485	570.387301400458	935.770381699006	945.475006066752	297.171630288790	1012.950092901080	761.544673089915	553.688501566787	962.651647433382	645.585197524171	630.586286845314	1054.279925881031	598.748698548299	558.360762869646	1065.624603421763	488.037736183619	588.786662525135	990.652158436342	740.529575539340	334.481240021274	909.152033351662	617.418611208166	283.155154746380	998.356895910411	546.491843707907	350.488437700993	1001.362592364051	472.260857349348	361.794290845123	959.404124516119	399.674004272148	357.423157622731	853.285832475996	298.577390064383	311.676994952407	884.150944433466	183.262916459102	384.053420803546	988.157527887304	415.679136789972	595.124324644141	861.904810855219	379.076209450416	647.960061071226	852.132786201723	266.462670596065	605.360066280327	653.844924874346	205.049697035410	563.580439146354	817.643221974851	146.395463482630	624.601243156153	704.781932237447	149.795101276139	646.435653626962	877.037197021403	34.735310199663	664.143591974424	737.857222226316	39.471511786773	432.893610205144	806.555984576697	36.110939596434	347.933324789715	892.968008145477	94.910723548654	370.703249404200	1018.090205307392	39.866768987949	331.468329172200	940.764099117166	1085.675562690860	99.040884510298	1156.060371317088	940.381215896569	84.695755173138	841.644355462596	1092.696125146614	708.467937762467	874.911721261342	835.377785474467	739.817704360138	
107	15.637000000000	711.468025877887	1001.679254316175	438.524346773466	934.563589753164	1420.283428834220	255.729903502739	1019.277719102868	1351.276123500853	425.955498104582	925.396183672358	1433.013028371310	591.408843148522	907.256752422436	1485.584543307017	415.340811532635	933.544202603157	939.295289630225	570.678657281681	935.323614235049	945.924658407818	297.431743537415	1010.836105819417	765.290671366827	553.819530335906	962.417771077469	648.664072218947	630.676093445395	1054.915654151189	603.278635413668	558.529754959328	1068.520065907412	492.971599969144	589.232800507566	987.277524225117	739.933358496516	334.505990773418	904.407117533539	617.887257706265	282.696779558576	992.172061305610	546.023404684885	350.661675249087	994.357298780145	472.235487154734	362.171442714337	952.594211745416	399.928861772565	357.394616986361	846.825521388307	298.587842620992	311.415907289746	877.866372018647	183.368830319894	384.016308341284	992.626655396230	419.024951025501	595.008387884420	866.999213468242	379.038871681936	646.625252725710	860.787965657188	266.254198885326	604.065425979696	664.922441321740	198.229935932053	560.642333309816	829.995520425787	145.967724360998	623.058039332210	717.099700419647	144.931846553246	643.928624288876	892.953545624223	36.025941391210	662.918018521449	731.850325327762	39.347979409397	432.849191381205	800.602973816006	36.023754630965	347.850026680514	886.996426464738	94.869657421502	370.638576442345	1012.157271278734	39.917681297070	331.467557964258	944.592700676438	1085.976095060526	99.518183951465	1163.462770275906	946.293645740615	91.297642820737	826.462109004745	1097.435818709402	706.719397034273	848.865117367858	838.900684517133	739.309475499485	
108	15.656500000000	709.444792735571	1003.869816071841	435.795189012567	937.347361802027	1421.187552644596	255.811674243326	1018.827782462397	1352.214944539234	427.558081471050	922.513554457801	1434.796692275023	591.169052900803	907.622602751519	1486.859950031290	414.967654000082	929.322608654912	940.987733235703	571.244465075431	935.052795156080	946.841782014330	298.010622087341	1007.945622513363	769.013809571610	554.255651114439	961.021492099381	651.848913891685	630.969190669445	1054.126316650807	607.662137893146	558.869942439670	1069.952157593608	498.148512824382	589.861275696971	983.417095814434	739.493223265011	334.929911665409	898.899771348836	618.783756730059	282.351095362294	984.894462030885	545.755519571618	351.010524325053	986.090947364330	472.528943086819	362.622844986696	944.765859634864	400.592163710727	357.355566061476	839.605926087362	298.757572281567	311.159737409052	871.223362784208	183.694403489576	383.956791284250	996.309782118758	422.385753347657	595.172632687828	872.038486552931	377.843699675515	645.784528787805	870.437887272810	265.030184034633	603.235839006010	677.990696834024	188.463111913641	558.490609248279	844.558244511207	144.436685057259	622.046590593464	731.966544705903	137.853378779607	642.174236351766	912.175899907820	37.577020548784	662.241358455859	725.828982491827	39.210403802421	432.814194727348	794.629586712267	35.933771059101	347.771220073188	880.997931901372	94.852011552946	370.548040299485	1006.206907687506	39.997590258623	331.475482727044	948.104417622257	1086.520623628125	100.691556592089	1170.264265063201	952.655476091217	99.202914797308	812.163401047810	1103.114905934107	705.297160873102	825.344473111195	843.946341675155	738.944007594629	
109	15.676000000000	707.566870126825	1006.540972176941	433.278258464867	940.291079657089	1422.392646289059	256.230218413548	1018.491927615209	1353.492014063000	429.443250940682	919.833691703439	1437.041523272624	591.120247397000	908.096208330956	1488.462582297955	414.870846365743	925.047904429844	942.984487238203	572.093231432160	934.941889214342	948.120449949726	298.903363741436	1004.347720410976	772.578360025943	554.964128747228	958.513679623205	654.977537465741	631.419777177921	1051.964590712119	611.716373916416	559.335848352206	1069.933225033942	503.399646061011	590.586782085782	979.124343081133	739.158656915730	335.746333324151	892.755347325217	620.030139127693	282.108418839693	976.676342938003	545.652426638967	351.517132829465	976.736034891642	473.084765507779	363.118352014935	936.073009692603	401.603216294456	357.291624356804	831.739801385999	299.065450839426	310.900064148384	864.281985809508	184.212937633137	383.872057938312	999.229760759117	425.672600825634	595.570620614986	877.153048311446	375.559078126184	645.477474837083	881.104722090033	262.949836834436	602.919104666941	693.189436105775	176.281969710623	557.243190650092	861.243174153212	142.001517033889	621.611203944133	749.399920371883	129.027877003859	641.268322158902	934.360114317720	39.467561706446	662.177641265287	719.802582350092	39.068326515060	432.786180646952	788.640796500429	35.844253052771	347.698461222119	874.980892131718	94.857417615891	370.435541384606	1000.243400814760	40.102475333529	331.491991785420	951.388649531343	1087.245227748769	102.489688535588	1176.497404360857	959.375748846954	108.278421104225	798.799195237855	1109.480032948504	704.164747657595	804.421102608351	850.095068163524	738.792919460510	
